<svg width="54" height="48" viewBox="0 0 54 48" fill="none" xmlns="http://www.w3.org/2000/svg">
<path d="M20.8027 39.5723C22.9789 39.5723 24.7429 41.3365 24.7432 43.5127C24.7432 45.689 22.9791 47.4541 20.8027 47.4541C18.6265 47.454 16.8623 45.689 16.8623 43.5127C16.8625 41.3366 18.6266 39.5724 20.8027 39.5723ZM49.9023 0C52.0786 0 53.8427 1.76417 53.8428 3.94043C53.8428 6.11678 52.0787 7.88086 49.9023 7.88086C49.6606 7.88085 49.4241 7.85811 49.1943 7.81641L42.4238 21.6826C42.2735 21.99 41.9759 22.1994 41.6357 22.2373C41.2956 22.2751 40.9594 22.136 40.7451 21.8691L35.5391 15.3838C35.0279 15.6261 34.4568 15.7626 33.8535 15.7627C33.4615 15.7627 33.0829 15.7042 32.7256 15.5977L26.2822 31.4658C26.1363 31.8246 25.796 32.0671 25.4092 32.0879C25.0223 32.1086 24.658 31.9037 24.4746 31.5625L20.1738 23.5566C19.9085 23.613 19.6336 23.6435 19.3516 23.6436C19.0431 23.6436 18.7431 23.6071 18.4551 23.54L9.00879 41.127L8.12793 40.6543L7.24707 40.1807L16.6875 22.6055C15.9032 21.8852 15.4111 20.8519 15.4111 19.7031C15.4112 17.5269 17.1753 15.7627 19.3516 15.7627C21.5278 15.7628 23.2919 17.5269 23.292 19.7031C23.292 20.8787 22.7764 21.9333 21.96 22.6553L25.2295 28.7422L30.999 14.5371C30.3264 13.8303 29.9122 12.875 29.9121 11.8223C29.9121 9.64592 31.6772 7.88184 33.8535 7.88184C36.0297 7.88204 37.7939 9.64604 37.7939 11.8223C37.7939 12.6694 37.5252 13.4532 37.0703 14.0957L41.3184 19.3877L47.3818 6.96973C46.5141 6.24688 45.9619 5.15808 45.9619 3.94043C45.962 1.7642 47.7261 4.75442e-05 49.9023 0ZM43.1748 28.3877C45.3512 28.3877 47.1152 30.1518 47.1152 32.3281C47.1152 34.5044 45.3511 36.2686 43.1748 36.2686C40.9986 36.2684 39.2344 34.5044 39.2344 32.3281C39.2344 30.1518 40.9986 28.3878 43.1748 28.3877ZM4.02637 9.74512C6.20272 9.74512 7.96777 11.5102 7.96777 13.6865C7.9676 15.8627 6.20261 17.627 4.02637 17.627C1.8503 17.6268 0.0861116 15.8626 0.0859375 13.6865C0.0859375 11.5103 1.85019 9.74532 4.02637 9.74512Z" fill="#A97CEF"/>
</svg>
