<svg width="66" height="48" viewBox="0 0 66 48" fill="none" xmlns="http://www.w3.org/2000/svg">
<path d="M49.7782 0.0748291C51.1453 0.0748793 52.4504 0.600671 53.4003 1.55042L64.2929 12.443L64.4618 12.6198C66.1396 14.4733 66.0828 17.281 64.2929 19.0709L57.9345 25.4293C57.725 25.6386 57.408 25.7604 57.0732 25.7604C56.9488 25.7603 56.8267 25.7424 56.7118 25.7106C56.4841 26.8475 55.9564 27.9387 55.123 28.86L54.8857 29.11L38.2411 45.7545C36.9102 47.0852 35.1066 47.8003 33.2402 47.8004C31.3734 47.8003 29.5683 47.0846 28.2372 45.7535L20.1054 37.6207L19.8681 37.3717C19.844 37.3451 19.8213 37.3175 19.7978 37.2906L11.7548 29.2467C10.9318 28.4236 10.364 27.4423 10.0487 26.401C9.87519 26.488 9.67244 26.5358 9.46281 26.5358C9.12801 26.5357 8.81089 26.414 8.60148 26.2047L2.24308 19.8463C0.453246 18.0564 0.397423 15.2497 2.07512 13.3961L2.24308 13.2194L13.1357 2.32581C14.0855 1.37593 15.3906 0.851317 16.7577 0.851196C18.1249 0.851195 19.4298 1.37599 20.3798 2.32581L26.7392 8.6842C26.8074 8.75244 26.861 8.82709 26.9003 8.90491C27.1041 9.04254 27.2981 9.20118 27.4784 9.38147L28.0341 9.93713C28.5502 9.83981 29.0883 9.78774 29.6415 9.78772H38.5487L38.8193 9.51917L38.9657 9.38049C39.1842 9.18341 39.4237 9.01121 39.6796 8.86682C39.4826 8.56145 39.5213 8.18543 39.7978 7.90881L46.1562 1.55042C47.1061 0.600524 48.4111 0.0749254 49.7782 0.0748291ZM41.7509 10.0983C41.4175 10.0984 41.0348 10.2073 40.6874 10.4918L40.5419 10.6246L39.9413 11.2252C39.732 11.4345 39.4147 11.5571 39.08 11.5573H29.6405C27.0801 11.5575 24.9886 13.1686 24.8603 15.1949L24.8544 15.3922C24.8544 17.5101 26.9969 19.2274 29.6396 19.2281C30.0637 19.2282 30.4509 19.4238 30.6347 19.7301C30.8181 20.0366 30.7662 20.4004 30.5009 20.6656L21.8271 29.3395C19.9249 31.2417 19.8662 34.3492 21.6493 36.3268L21.8271 36.5153L29.9599 44.6481C30.9153 45.6034 32.1091 46.0317 33.2392 46.0319C34.3695 46.0318 35.5638 45.6037 36.5195 44.6481L53.163 28.0035L53.3417 27.8151C55.1246 25.8374 55.0651 22.7299 53.163 20.8278L42.9599 10.6256L42.8134 10.4918C42.4662 10.2077 42.0841 10.0983 41.7509 10.0983ZM39.1679 34.9684C39.551 34.6564 40.1164 34.6791 40.4736 35.0358C40.8308 35.3931 40.8535 35.9591 40.5409 36.3424L40.4736 36.4166L32.1269 44.7633C31.7458 45.1443 31.1281 45.1441 30.747 44.7633C30.3662 44.3822 30.3661 43.7645 30.747 43.3834L39.0937 35.0358L39.1679 34.9684ZM35.5195 31.3219C35.9027 31.0094 36.4688 31.0323 36.8261 31.3893C37.1831 31.7466 37.2059 32.3117 36.8935 32.6949L36.8261 32.7692L28.4794 41.1158C28.0983 41.4969 27.4797 41.497 27.0986 41.1158C26.7181 40.7348 26.718 40.117 27.0986 39.736L35.4462 31.3893L35.5195 31.3219ZM31.8691 27.6744C32.2523 27.362 32.8184 27.3848 33.1757 27.7418C33.5326 28.099 33.5553 28.6643 33.2431 29.0475L33.1757 29.1217L24.829 37.4684C24.4479 37.8494 23.8293 37.8495 23.4482 37.4684C23.0676 37.0873 23.0674 36.4695 23.4482 36.0885L31.7948 27.7418L31.8691 27.6744ZM25.953 10.6305C25.1863 10.003 24.0532 10.0469 23.3378 10.7623L13.1347 20.9655C11.2293 22.8711 11.2294 25.9612 13.1347 27.8668L18.1493 32.8815C18.1611 31.2023 18.8121 29.5263 20.1054 28.233L27.5859 20.7506C24.7268 20.0471 22.6478 17.9148 22.6474 15.3932L22.6571 15.1041C22.7768 13.2146 24.0647 11.572 25.953 10.6305ZM16.7577 2.61975C16.127 2.61987 15.4337 2.85788 14.8593 3.43225L3.96574 14.3258L3.85637 14.4401C2.76534 15.6514 2.80212 17.576 3.96574 18.7399L8.22648 23.0016C8.36827 22.2153 8.71441 21.4523 9.27531 20.7955L9.53703 20.5123L20.4296 9.61975C21.2402 8.80915 22.2996 8.32 23.4091 8.18323L18.6571 3.43225C18.0826 2.85773 17.3886 2.61975 16.7577 2.61975ZM49.7782 1.84338C49.1475 1.84348 48.4533 2.08148 47.8788 2.65588L43.1269 7.40686C44.2363 7.54355 45.2957 8.03291 46.1064 8.84338L56.9989 19.7369L57.2607 20.0192C57.8216 20.6759 58.1676 21.4389 58.3095 22.2252L62.5712 17.9645C63.7349 16.8006 63.7709 14.875 62.6796 13.6637L62.5712 13.5504L51.6767 2.65588C51.1023 2.08185 50.4088 1.84343 49.7782 1.84338Z" fill="#7CAC73"/>
</svg>
