<svg width="84" height="68" viewBox="0 0 84 68" fill="none" xmlns="http://www.w3.org/2000/svg">
<mask id="path-1-inside-1_2001_423" fill="white">
<path d="M19.7318 2.8622C22.4655 0.128587 26.8976 0.128548 29.6313 2.8622L41.833 15.0639L54.7957 2.10123C57.5294 -0.632164 61.9616 -0.632349 64.6952 2.10123L81.4773 18.8833C84.2107 21.6169 84.2106 26.0491 81.4773 28.7828L43.473 66.787C43.2963 66.9637 43.0696 67.0596 42.8384 67.0763L42.3675 67.5473C41.977 67.9378 41.3438 67.9378 40.9533 67.5473L2.94975 29.5437C0.216077 26.8101 0.216077 22.3779 2.94975 19.6442L19.7318 2.8622Z"/>
</mask>
<path d="M19.7318 2.8622L16.1963 -0.673378L16.1963 -0.673336L19.7318 2.8622ZM41.833 15.0639L38.2975 18.5995L41.833 22.135L45.3686 18.5995L41.833 15.0639ZM54.7957 2.10123L51.2604 -1.4345L51.2602 -1.4343L54.7957 2.10123ZM64.6952 2.10123L61.1597 5.63676L64.6952 2.10123ZM81.4773 18.8833L85.0129 15.3479L85.0128 15.3477L81.4773 18.8833ZM81.4773 28.7828L85.0128 32.3183L85.013 32.3181L81.4773 28.7828ZM43.473 66.787L47.0085 70.3226L47.0086 70.3225L43.473 66.787ZM42.8384 67.0763L42.477 62.0894L40.6197 62.224L39.3029 63.5408L42.8384 67.0763ZM19.7318 2.8622L23.2673 6.39777C24.0484 5.61669 25.3148 5.61674 26.0958 6.39773L29.6313 2.8622L33.1668 -0.673336C28.4805 -5.35965 20.8826 -5.35951 16.1963 -0.673378L19.7318 2.8622ZM29.6313 2.8622L26.0958 6.39773L38.2975 18.5995L41.833 15.0639L45.3686 11.5284L33.1668 -0.673336L29.6313 2.8622ZM41.833 15.0639L45.3686 18.5995L58.3313 5.63676L54.7957 2.10123L51.2602 -1.4343L38.2975 11.5284L41.833 15.0639ZM54.7957 2.10123L58.3311 5.63696C59.1124 4.85573 60.3789 4.856 61.1597 5.63676L64.6952 2.10123L68.2308 -1.4343C63.5444 -6.1207 55.9465 -6.12006 51.2604 -1.4345L54.7957 2.10123ZM64.6952 2.10123L61.1597 5.63676L77.9417 22.4188L81.4773 18.8833L85.0128 15.3477L68.2308 -1.4343L64.6952 2.10123ZM81.4773 18.8833L77.9416 22.4187C78.7225 23.1996 78.7226 24.4663 77.9415 25.2474L81.4773 28.7828L85.013 32.3181C89.6986 27.632 89.6989 20.0341 85.0129 15.3479L81.4773 18.8833ZM81.4773 28.7828L77.9417 25.2472L39.9375 63.2515L43.473 66.787L47.0086 70.3225L85.0128 32.3183L81.4773 28.7828ZM43.473 66.787L39.9376 63.2514C40.6517 62.5373 41.5701 62.1552 42.477 62.0894L42.8384 67.0763L43.1999 72.0633C44.5692 71.964 45.9409 71.3902 47.0085 70.3226L43.473 66.787ZM42.8384 67.0763L39.3029 63.5408L38.832 64.0117L42.3675 67.5473L45.903 71.0828L46.374 70.6119L42.8384 67.0763ZM42.3675 67.5473L38.832 64.0117C40.3941 62.4496 42.9267 62.4496 44.4888 64.0117L40.9533 67.5473L37.4178 71.0828C39.7609 73.426 43.5599 73.426 45.903 71.0828L42.3675 67.5473ZM40.9533 67.5473L44.4888 64.0117L6.48528 26.0082L2.94975 29.5437L-0.585786 33.0793L37.4178 71.0828L40.9533 67.5473ZM2.94975 29.5437L6.48528 26.0082C5.70423 25.2272 5.70423 23.9608 6.48528 23.1798L2.94975 19.6442L-0.585786 16.1087C-5.27208 20.795 -5.27208 28.393 -0.585786 33.0793L2.94975 29.5437ZM2.94975 19.6442L6.48528 23.1798L23.2673 6.39773L19.7318 2.8622L16.1963 -0.673336L-0.585786 16.1087L2.94975 19.6442Z" fill="#7CAC73" mask="url(#path-1-inside-1_2001_423)"/>
</svg>
