<svg width="84" height="62" viewBox="0 0 84 62" fill="none" xmlns="http://www.w3.org/2000/svg">
<path d="M80.6514 0.0635594C81.2641 -0.0940335 81.9153 0.0475231 82.4072 0.445395C82.8992 0.843471 83.1737 1.45081 83.1475 2.08309L83.0947 3.13485C82.8677 7.01116 82.286 11.1112 81.6738 14.9542L81.0098 19.0216C80.9441 19.4205 80.7635 19.7711 80.5088 20.0479C82.4897 23.3414 83.6298 27.1981 83.6299 31.3214C83.6299 43.4202 73.8214 53.2285 61.7227 53.2286C57.1508 53.2285 52.9065 51.8273 49.3945 49.4317L43.0859 60.3409C42.7252 60.9645 42.0573 61.3464 41.3369 61.3399C40.6165 61.3333 39.9547 60.9388 39.6055 60.3087L33.7539 49.7511C30.3384 51.9512 26.2721 53.2285 21.9072 53.2286C9.80863 53.2286 0.00036008 43.4209 0 31.3223C0 27.2014 1.13845 23.3462 3.11719 20.0538C2.86013 19.7762 2.67833 19.4228 2.6123 19.0216L1.94824 14.9542C1.3361 11.1112 0.754327 7.01111 0.527344 3.13485L0.474609 2.08309C0.448421 1.45089 0.722947 0.843421 1.21484 0.445395C1.70674 0.0474346 2.35792 -0.0939701 2.9707 0.0635594L3.52734 0.21395C8.84214 1.71941 13.6425 5.07494 16.876 9.9952C18.4915 9.61554 20.1759 9.41512 21.9072 9.41512C30.7389 9.41528 38.3481 14.6423 41.8145 22.171C45.2807 14.6423 52.8908 9.41527 61.7227 9.41512C63.4509 9.41513 65.1323 9.61589 66.7451 9.99422C69.9785 5.07394 74.78 1.7195 80.0947 0.21395L80.6514 0.0635594ZM41.8145 40.4727C40.6331 43.0386 38.9709 45.3368 36.9424 47.252L41.3916 55.2804L46.2676 46.8477C44.4282 45.0166 42.9136 42.8601 41.8145 40.4727ZM21.9072 13.4151C12.0175 13.4151 4 21.4327 4 31.3223C4.00036 41.2117 12.0178 49.2286 21.9072 49.2286C26.0183 49.2285 29.8047 47.8413 32.8271 45.5118C32.9849 45.3155 33.1822 45.1453 33.416 45.0157C33.4369 45.0042 33.4584 44.9942 33.4795 44.9835C37.3531 41.699 39.8133 36.7988 39.8135 31.3223C39.8135 21.4328 31.7967 13.4153 21.9072 13.4151ZM61.7227 13.4151C51.8334 13.4153 43.8167 21.4321 43.8164 31.3214C43.8164 41.2109 51.8331 49.2284 61.7227 49.2286C71.6123 49.2285 79.6299 41.211 79.6299 31.3214C79.6295 21.432 71.6121 13.4152 61.7227 13.4151ZM21.9033 21.1671C23.0078 21.1671 23.9033 22.0625 23.9033 23.1671C23.9033 24.2716 23.0078 25.167 21.9033 25.1671C18.5044 25.1671 15.7491 27.9225 15.749 31.3214C15.749 34.7203 18.5044 37.4756 21.9033 37.4757C25.3023 37.4756 28.0576 34.7203 28.0576 31.3214C28.0577 30.2169 28.9532 29.3215 30.0576 29.3214C31.1621 29.3214 32.0576 30.2169 32.0576 31.3214C32.0576 36.9295 27.5114 41.4756 21.9033 41.4757C16.2953 41.4756 11.749 36.9295 11.749 31.3214C11.7491 25.7133 16.2953 21.1671 21.9033 21.1671ZM61.7207 21.1671C67.3285 21.1674 71.8748 25.7136 71.875 31.3214C71.8749 36.9293 67.3286 41.4754 61.7207 41.4757C60.6161 41.4757 59.7207 40.5802 59.7207 39.4757C59.7209 38.3713 60.6163 37.4757 61.7207 37.4757C65.1194 37.4754 67.8749 34.7201 67.875 31.3214C67.8748 27.9227 65.1193 25.1674 61.7207 25.1671C58.3218 25.1671 55.5666 27.9226 55.5664 31.3214C55.5663 32.4257 54.6707 33.321 53.5664 33.3214C52.4619 33.3214 51.5665 32.4259 51.5664 31.3214C51.5666 25.7134 56.1127 21.1671 61.7207 21.1671ZM4.66211 4.83797C4.98102 8.52701 5.58138 12.3915 6.18262 16.0704C8.10105 14.0929 10.3882 12.4748 12.9346 11.3302C10.7612 8.37619 7.87911 6.17834 4.66211 4.83797ZM78.96 4.83797C75.7434 6.17825 72.8607 8.37474 70.6875 11.3282C73.2338 12.4716 75.5216 14.0874 77.4404 16.0636C78.0413 12.3867 78.6412 8.52484 78.96 4.83797Z" fill="#7CAC73"/>
</svg>
