<svg width="60" height="64" viewBox="0 0 60 64" fill="none" xmlns="http://www.w3.org/2000/svg">
<path d="M28.0391 0C38.4279 -4.54111e-07 46.8496 8.42169 46.8496 18.8105C46.8494 27.554 40.8837 34.903 32.8008 37.0117C34.5808 40.3713 35.1377 44.3325 34.2109 48.1758C39.2064 41.2955 47.8173 37.598 56.5273 39.1143L57.0742 39.2158L57.3408 39.2822C58.5574 39.6442 59.4096 40.7521 59.4404 42.0254L59.4346 42.3008C59.3352 43.7454 59.0953 45.2011 58.707 46.6504L58.5547 47.1943C55.2195 58.5307 43.7732 65.3836 32.2832 63.0957L32.0166 63.0303C30.7128 62.6425 29.8279 61.398 29.9229 60.0117L29.9668 59.4697C29.976 59.3702 29.9895 59.2705 30 59.1709C29.8314 59.2681 29.6528 59.3464 29.4658 59.4023C29.4679 59.4245 29.4716 59.4466 29.4736 59.4688L29.5186 60.0107C29.62 61.4895 28.6059 62.8073 27.1582 63.0957C15.6684 65.3838 4.22219 58.5314 0.886719 47.1953L0.734375 46.6514C0.346202 45.2027 0.105529 43.747 0.00585938 42.3018L0 42.0264C0.0303614 40.7525 0.882688 39.6442 2.09961 39.2822L2.36621 39.2158L2.91309 39.1133C13.2571 37.3124 23.4612 42.8658 27.6357 52.3701L29.1162 47.8398L29.2246 47.4863C30.2335 44.0035 29.4274 40.3214 27.2256 37.6016C17.2144 37.1754 9.22873 28.9266 9.22852 18.8105C9.22852 8.42177 17.6503 0.000127449 28.0391 0ZM24.9287 56.6953C22.4372 47.3979 13.3843 41.6093 4.08789 42.9766C4.19357 43.8541 4.36179 44.7359 4.59766 45.6162L4.72363 46.0635C7.38159 55.0982 16.2907 60.6796 25.4365 59.335C25.3493 58.6067 25.2195 57.8755 25.043 57.1455L24.9287 56.6953ZM55.3535 42.9766C46.0571 41.609 37.0043 47.3978 34.5127 56.6953L34.3984 57.1455C34.2218 57.8756 34.0922 58.6066 34.0049 59.335C43.1507 60.6793 52.06 55.0973 54.7178 46.0625L54.8438 45.6152C55.0794 44.7355 55.2481 43.8541 55.3535 42.9766ZM28.0391 5C20.4117 5.00013 14.2285 11.1832 14.2285 18.8105C14.2287 26.4377 20.4119 32.621 28.0391 32.6211C35.6664 32.6211 41.8494 26.4378 41.8496 18.8105C41.8496 11.1831 35.6665 5 28.0391 5Z" fill="#7CAC73"/>
</svg>
