<svg width="43" height="48" viewBox="0 0 43 48" fill="none" xmlns="http://www.w3.org/2000/svg">
<path d="M20.6152 1.09869C21.1557 0.943624 21.729 0.943706 22.2695 1.09869L40.3281 6.28033L40.5645 6.35846C41.7214 6.79675 42.4999 7.90981 42.5 9.16412V26.8428C42.5 38.0325 33.0299 47.0284 21.4424 47.0284C9.85502 47.0282 0.384802 38.0324 0.384766 26.8428V9.16412C0.384914 7.82611 1.2715 6.64942 2.55762 6.28033L20.6152 1.09869ZM21.7188 3.02057C21.5387 2.96895 21.347 2.96898 21.167 3.02057L3.10938 8.20318C2.68076 8.3262 2.38491 8.71822 2.38477 9.16412V26.8428C2.3848 36.8449 10.8749 45.0282 21.4424 45.0284C32.01 45.0284 40.5 36.845 40.5 26.8428V9.16412C40.4999 8.77405 40.2742 8.42438 39.9307 8.2608L39.7764 8.20318L21.7188 3.02057ZM19.6006 10.3819C20.2982 8.70814 22.7627 8.76375 23.3428 10.5489L25.7666 18.0108H33.6133C35.5505 18.011 36.3562 20.4901 34.7891 21.629L28.4414 26.2403L30.8652 33.7022C31.4637 35.5447 29.3554 37.0771 27.7881 35.9385L21.4404 31.3272L15.0928 35.9385C13.5255 37.0769 11.4173 35.5446 12.0156 33.7022L14.4395 26.2403L8.0918 21.629C6.52469 20.4902 7.33044 18.0111 9.26758 18.0108H17.1133L19.5381 10.5489L19.6006 10.3819ZM19.0156 18.629C18.7477 19.4527 17.9795 20.0108 17.1133 20.0108H9.26758L15.6152 24.6221L15.7422 24.7227C16.3102 25.2098 16.5591 25.9753 16.3857 26.7032L16.3418 26.8585L13.917 34.3204L20.2646 29.709L20.3994 29.6192C21.0838 29.2016 21.9591 29.2317 22.6162 29.709L28.9639 34.3204L26.5391 26.8585C26.2714 26.0345 26.5648 25.1314 27.2656 24.6221L33.6133 20.0108H25.7666C24.9547 20.0106 24.2291 19.5202 23.9209 18.7803L23.8652 18.629L21.4404 11.1671L19.0156 18.629Z" fill="#C77272"/>
</svg>
